<?xml version="1.0" standalone="no"?>
<!DOCTYPE svg PUBLIC "-//W3C//DTD SVG 20010904//EN"
 "http://www.w3.org/TR/2001/REC-SVG-20010904/DTD/svg10.dtd">
<svg version="1.0" xmlns="http://www.w3.org/2000/svg"
 width="75.000000pt" height="75.000000pt" viewBox="0 0 75.000000 75.000000"
 preserveAspectRatio="xMidYMid meet">
<metadata>
Created by potrace 1.14, written by Peter Selinger 2001-2017
</metadata>
<g transform="translate(0.000000,75.000000) scale(0.100000,-0.100000)"
fill="#000000" stroke="none">
<path d="M329 675 c-78 -42 -53 -160 36 -172 106 -14 145 141 44 176 -40 14
-48 13 -80 -4z"/>
<path d="M73 488 c-13 -15 -17 -325 -4 -346 4 -7 34 -14 67 -17 55 -4 153 -29
216 -53 22 -9 38 -7 86 12 62 24 94 32 182 42 30 3 57 8 60 11 3 3 6 79 8 169
3 124 0 169 -9 181 -18 21 -126 10 -230 -23 -72 -23 -80 -23 -116 -10 -98 38
-242 57 -260 34z m211 -84 c28 -9 53 -20 56 -25 8 -12 6 -234 -3 -232 -4 1
-31 8 -60 17 -54 15 -97 24 -132 25 -19 1 -20 7 -19 119 1 64 2 120 3 123 2 9
95 -8 155 -27z m341 -95 l-1 -114 -64 -12 c-36 -6 -84 -18 -107 -26 l-43 -15
0 123 0 122 73 21 c79 23 129 31 137 20 3 -3 5 -57 5 -119z"/>
</g>
</svg>
